<?xml version="1.0" standalone="no"?><!DOCTYPE svg PUBLIC "-//W3C//DTD SVG 1.1//EN" "http://www.w3.org/Graphics/SVG/1.1/DTD/svg11.dtd"><svg t="1762060322664" class="icon" viewBox="0 0 1024 1024" version="1.1" xmlns="http://www.w3.org/2000/svg" p-id="15870" xmlns:xlink="http://www.w3.org/1999/xlink" width="200" height="200"><path d="M507.72204168 917.33333335q-85.055375 0-163.022802-33.355049t-134.254071-89.641694-89.641694-134.254071-33.355049-163.022802 33.35504901-163.022801 89.64169399-134.254072 134.254071-89.641693T507.72204167 76.78610235t163.022801 33.355049 134.25407201 89.641693T894.64060767 334.03691635 927.99565667 497.05971735q0 56.703583-15.00977199 111.322476t-42.110749 100.899023-65.876221 85.055374-85.055375 65.876222-100.899023 42.110749T507.72204168 917.33333335m0-800.521173q-103.400651 0-190.957655 50.86645t-138.423453 138.423453-50.866449 190.957654q0 77.55048901 30.019544 147.596092T238.79695968 765.98479935 360.12594968 847.28773035t147.596092 30.019544 147.596091-30.019544 121.32899-81.302931T857.95005468 644.65580935 887.96959868 497.05971735q0-103.400651-50.86645-190.957654t-138.423453-138.423453-190.957654-50.86645m-30.019544 516.169381q-0.833876-10.840391-0.833877-16.677524 0-33.35504899 10.006515-57.537459 6.67101-17.511401 21.680782-35.856678 5.837134-6.67101 15.843648-16.677524t25.016287-23.348534q29.185668-25.850163 37.52443-40.859935 9.172638-15.843648 9.172638-33.35504901 0-32.521173-25.850163-57.53745899-8.338762-8.338762-18.345277-13.758958t-20.846905-8.338762-23.348534-2.918567-22.93159601 2.501629-20.01302999 7.504886-17.094462 12.508143q-24.18241 22.514658-31.687297 70.045603l-58.371335-6.67101q8.338762-64.208469 46.697068-97.980456T506.88816468 280.25190035q66.710098 0 106.73615701 36.273615T653.65037968 405.33333335q0 30.019544-14.175895 55.035831-6.67101 12.508143-20.429968 27.934853T584.43865368 522.07600435q-13.34202 12.508143-22.51465799 21.263844t-13.34202001 14.592834q-1.667752 2.501629-3.752443 5.837133t-3.335504 6.67101-2.918567 6.67101001-2.501629 7.50488599q-4.169381 15.009772-4.169381 48.36482l-54.201954 0m-3.335505 113.407167l0-64.208469 63.374593 0L537.74158568 746.38870835l-63.374593 0z" fill="" p-id="15871"></path></svg>